#define pat2_width 16
#define pat2_height 16
static unsigned char pat2_bits[] = {
   0xee, 0xee, 0xbb, 0xbb, 0xee, 0xee, 0xbb, 0xbb, 0xee, 0xee, 0xbb, 0xbb,
   0xee, 0xee, 0xbb, 0xbb, 0xee, 0xee, 0xbb, 0xbb, 0xee, 0xee, 0xbb, 0xbb,
   0xee, 0xee, 0xbb, 0xbb, 0xee, 0xee, 0xbb, 0xbb};
